<?xml version="1.0" encoding="UTF-8"?>
<svg id="Layer_2" data-name="Layer 2" xmlns="http://www.w3.org/2000/svg" viewBox="0 0 232.39 114.24">
  <defs>
    <style>
      .cls-1 {
        fill: #fff;
        stroke-width: 0px;
      }
    </style>
  </defs>
  <g id="Layer_1-2" data-name="Layer 1">
    <polygon class="cls-1" points="0 .83 0 38.63 33.81 .83 0 .83"/>
    <polygon class="cls-1" points="0 38.63 0 76.43 33.81 38.63 0 38.63"/>
    <polygon class="cls-1" points="0 76.44 0 114.24 33.81 76.44 0 76.44"/>
    <polygon class="cls-1" points="33.81 .83 33.81 38.63 67.61 .83 33.81 .83"/>
    <polygon class="cls-1" points="33.81 38.63 33.81 76.43 67.61 38.63 33.81 38.63"/>
    <path class="cls-1" d="m229.5,45.73c-1.19-.9-2.78-1.35-4.77-1.35-1.46,0-2.76.26-3.9.78-1.14.52-2.03,1.23-2.68,2.14-.65.91-.97,1.96-.97,3.16,0,1.45.45,2.66,1.36,3.64.9.98,2.3,1.69,4.18,2.15l3.54.85c1.19.28,2.07.72,2.66,1.32.58.6.88,1.33.88,2.21,0,1.13-.5,2.07-1.5,2.82-1,.75-2.33,1.12-4,1.12-1.49,0-2.68-.33-3.59-.99s-1.52-1.63-1.83-2.92l-2.41.59c.39,1.81,1.27,3.19,2.64,4.14,1.37.96,3.12,1.43,5.24,1.43,1.59,0,2.99-.27,4.2-.81,1.21-.54,2.15-1.29,2.83-2.24.68-.95,1.02-2.04,1.02-3.26,0-1.45-.45-2.65-1.36-3.61s-2.27-1.66-4.09-2.1l-3.28-.8c-1.35-.34-2.34-.8-2.99-1.38-.64-.58-.97-1.33-.97-2.27,0-1.1.47-2,1.41-2.7.94-.7,2.15-1.05,3.61-1.05.98,0,1.8.16,2.46.47.66.31,1.2.73,1.62,1.26.41.53.73,1.12.96,1.77l2.3-.65c-.53-1.57-1.39-2.81-2.58-3.71m-23.66,20.64v-14.01c0-1.07.25-2.03.76-2.87.51-.84,1.2-1.49,2.08-1.97.88-.48,1.89-.71,3.02-.71.33,0,.64.02.92.06.28.04.48.07.59.08v-2.56c-.17,0-.38-.02-.64-.03-.25,0-.48-.01-.69-.01-1.36,0-2.59.34-3.66,1.01-1.08.67-1.83,1.56-2.27,2.65h-.18v-3.33h-2.44v21.69h2.51Zm-12.98-.25c1.12-.47,2.05-1.09,2.8-1.86.75-.77,1.29-1.61,1.62-2.53l-2.39-.78c-.27.65-.68,1.25-1.21,1.79-.53.54-1.19.97-1.96,1.29-.78.32-1.68.48-2.7.48-1.51,0-2.81-.35-3.91-1.06-1.1-.71-1.95-1.7-2.55-2.99-.6-1.29-.9-2.79-.9-4.51v-1.33c0-1.43.31-2.75.9-3.95.59-1.2,1.4-2.17,2.45-2.91,1.05-.73,2.25-1.1,3.63-1.1,1.3,0,2.45.32,3.44.97.99.65,1.77,1.53,2.33,2.65.56,1.12.84,2.37.84,3.76h-14.37v2.22h16.94v-1.24c0-1.82-.25-3.39-.76-4.72-.51-1.33-1.2-2.44-2.07-3.32-.87-.88-1.85-1.53-2.94-1.96-1.09-.43-2.23-.64-3.4-.64-1.87,0-3.52.48-4.95,1.45-1.43.97-2.54,2.3-3.35,4-.8,1.7-1.21,3.64-1.21,5.82s.4,4.13,1.21,5.81c.81,1.68,1.95,2.99,3.42,3.94,1.48.95,3.23,1.42,5.25,1.42,1.45,0,2.73-.23,3.85-.7m-32.38-16.58c.51-.92,1.21-1.62,2.1-2.11.88-.49,1.9-.73,3.04-.73,1.67,0,3,.52,3.99,1.55.99,1.04,1.49,2.44,1.49,4.22v13.89h2.51v-14.05c0-1.71-.31-3.16-.92-4.33-.62-1.18-1.48-2.07-2.58-2.68-1.11-.61-2.39-.91-3.85-.91-1.59,0-2.93.34-4,1.01-1.08.67-1.87,1.57-2.38,2.68h-.23v-3.4h-2.44v21.69h2.51v-13.56c0-1.26.26-2.35.77-3.27m-16.1,11.76c0,1.19.27,2.18.82,2.98.55.8,1.24,1.4,2.1,1.81.85.4,1.74.61,2.66.61.53,0,.97-.04,1.33-.12.36-.08.66-.17.9-.26l-.54-2.27c-.18.05-.39.09-.62.13s-.52.06-.85.06c-.56,0-1.1-.11-1.6-.32-.5-.21-.9-.57-1.21-1.09-.31-.51-.47-1.22-.47-2.13v-21.22h-2.53v21.82Zm-3.23-14.43h10.35v-2.19h-10.35v2.19Zm-9.86,19.5v-14.01c0-1.07.25-2.03.76-2.87.51-.84,1.2-1.49,2.08-1.97.88-.48,1.89-.71,3.01-.71.33,0,.64.02.92.06s.48.07.59.08v-2.56c-.17,0-.38-.02-.64-.03-.25,0-.48-.01-.69-.01-1.36,0-2.59.34-3.66,1.01-1.08.67-1.83,1.56-2.27,2.65h-.18v-3.33h-2.44v21.69h2.51Zm-21.79-2.89c-.94-.72-1.41-1.74-1.41-3.06,0-.88.23-1.59.69-2.15.46-.56,1.12-1,1.99-1.32.87-.32,1.91-.56,3.13-.71.45-.06.96-.12,1.53-.2.56-.07,1.13-.17,1.7-.27.57-.11,1.07-.23,1.51-.37.44-.14.75-.3.94-.48v3.13c0,1.19-.27,2.27-.8,3.25-.53.98-1.29,1.77-2.27,2.37-.98.59-2.14.89-3.47.89-1.42,0-2.6-.36-3.54-1.08m6.35,2.8c.89-.39,1.64-.88,2.23-1.48.59-.6,1.04-1.22,1.34-1.86h.16v3.43h2.51v-14.73c0-1.45-.24-2.65-.72-3.59-.48-.95-1.11-1.69-1.88-2.22-.77-.53-1.61-.91-2.51-1.12-.9-.22-1.76-.33-2.59-.33-1.1,0-2.19.16-3.26.47-1.07.32-2.04.83-2.91,1.54-.87.71-1.54,1.66-2.03,2.85l2.39.86c.4-.93,1.09-1.74,2.07-2.43.98-.69,2.26-1.03,3.82-1.03,1.65,0,2.91.43,3.79,1.28.88.85,1.32,2.02,1.32,3.49v.51c0,.55-.22.94-.66,1.19-.44.25-1.09.42-1.93.54-.84.11-1.87.25-3.09.4-1.22.15-2.34.36-3.36.64-1.02.27-1.9.64-2.64,1.12-.74.47-1.32,1.07-1.72,1.81-.41.73-.61,1.64-.61,2.71,0,1.39.32,2.58.96,3.55.64.97,1.5,1.72,2.58,2.23,1.08.51,2.28.77,3.59.77,1.21,0,2.25-.19,3.15-.58m-30.91.08v-26.55h6.62c1.53,0,2.8.28,3.81.85,1,.56,1.75,1.34,2.25,2.33.49.99.74,2.11.74,3.37s-.25,2.39-.74,3.37c-.49.99-1.24,1.77-2.24,2.34-1,.57-2.25.85-3.77.85h-7.27v2.37h7.34c2.04,0,3.75-.39,5.13-1.18,1.37-.79,2.41-1.85,3.11-3.21.7-1.35,1.05-2.87,1.05-4.55s-.35-3.2-1.05-4.55c-.7-1.35-1.74-2.41-3.12-3.2-1.38-.79-3.09-1.18-5.15-1.18h-9.33v28.92h2.64Z"/>
    <path class="cls-1" d="m165.46,26.14c-.94-.72-1.41-1.74-1.41-3.06,0-.88.23-1.59.69-2.15.46-.56,1.12-1,1.99-1.32.87-.32,1.91-.56,3.13-.71.45-.06.96-.12,1.53-.2.56-.07,1.13-.17,1.7-.27.57-.11,1.07-.23,1.51-.37.44-.14.75-.3.94-.48v3.13c0,1.19-.27,2.27-.8,3.25-.53.98-1.29,1.77-2.27,2.37-.98.59-2.14.89-3.47.89-1.42,0-2.6-.36-3.54-1.08m6.35,2.8c.89-.39,1.64-.88,2.23-1.48.59-.6,1.04-1.22,1.34-1.86h.16v3.43h2.51v-14.73c0-1.45-.24-2.65-.72-3.59-.48-.95-1.11-1.69-1.88-2.22-.77-.53-1.61-.91-2.51-1.12-.9-.22-1.76-.33-2.59-.33-1.1,0-2.19.16-3.26.47-1.07.32-2.04.83-2.91,1.54-.87.71-1.54,1.66-2.03,2.85l2.39.86c.4-.93,1.09-1.74,2.07-2.43.98-.69,2.26-1.03,3.82-1.03,1.65,0,2.91.43,3.79,1.28.88.85,1.32,2.02,1.32,3.49v.51c0,.55-.22.94-.66,1.19-.44.24-1.09.42-1.93.54-.84.11-1.87.25-3.09.4-1.22.15-2.34.36-3.36.64-1.02.27-1.9.65-2.64,1.12-.74.47-1.32,1.07-1.72,1.81-.41.73-.61,1.64-.61,2.71,0,1.39.32,2.58.96,3.55.64.97,1.5,1.72,2.58,2.23,1.08.51,2.28.77,3.59.77,1.2,0,2.25-.19,3.15-.58m-40.81.08v-13.89c0-1.13.23-2.13.68-3,.46-.87,1.08-1.55,1.88-2.04.8-.49,1.69-.73,2.69-.73,1.49,0,2.64.45,3.46,1.36.82.9,1.23,2.09,1.23,3.56v14.76h2.57v-14.28c0-1.56.45-2.85,1.34-3.87.89-1.02,2.17-1.53,3.83-1.53,1.43,0,2.58.43,3.46,1.28.88.86,1.31,2.14,1.31,3.86v14.53h2.51v-14.53c0-2.43-.58-4.28-1.75-5.54-1.17-1.27-2.76-1.9-4.77-1.9-1.58,0-2.93.36-4.03,1.07-1.11.71-1.9,1.67-2.39,2.87h-.18c-.48-1.22-1.2-2.19-2.17-2.89-.97-.7-2.2-1.05-3.69-1.05s-2.64.32-3.65.97c-1.01.64-1.74,1.53-2.17,2.65h-.23v-3.33h-2.44v21.69h2.51Zm-14.18,0v-14.01c0-1.07.25-2.03.76-2.87.51-.84,1.2-1.49,2.08-1.97.88-.48,1.88-.71,3.01-.71.33,0,.64.02.92.06.28.04.48.07.59.08v-2.56c-.17,0-.38-.02-.64-.03-.25,0-.48-.01-.69-.01-1.37,0-2.59.34-3.66,1.01-1.08.67-1.83,1.56-2.27,2.65h-.18v-3.33h-2.44v21.69h2.51Zm-9.1-25.95c.37-.35.56-.78.56-1.28s-.18-.92-.55-1.28c-.37-.35-.81-.53-1.33-.53s-.95.18-1.32.53c-.37.35-.56.78-.56,1.28s.18.93.55,1.28.81.53,1.33.53.95-.18,1.32-.53m-.08,4.26h-2.53v21.69h2.53V7.34Zm-22.71,21.69v-13.29h12.78v-2.37h-12.78V2.49h14.09V.11h-16.73v28.92h2.64Z"/>
  </g>
</svg>