<?xml version="1.0" encoding="UTF-8"?>
<svg id="Layer_2" data-name="Layer 2" xmlns="http://www.w3.org/2000/svg" viewBox="0 0 594.49 665.83">
  <defs>
    <style>
      .cls-1 {
        fill: #1d2047;
        stroke-width: 0px;
      }
    </style>
  </defs>
  <g id="Layer_1-2" data-name="Layer 1">
    <g>
      <polygon class="cls-1" points="0 582.92 0 665.83 74.15 582.92 0 582.92"/>
      <polygon class="cls-1" points="74.15 500 74.15 582.92 148.3 500 74.15 500"/>
      <polygon class="cls-1" points="74.15 582.92 74.15 665.83 148.3 582.92 74.15 582.92"/>
      <polygon class="cls-1" points="148.3 414.59 148.3 497.51 222.44 414.59 148.3 414.59"/>
      <polygon class="cls-1" points="222.44 331.67 222.44 414.59 296.59 331.67 222.44 331.67"/>
      <polygon class="cls-1" points="222.44 414.59 222.44 497.51 296.59 414.59 222.44 414.59"/>
      <polygon class="cls-1" points="148.3 500 148.3 582.92 222.44 500 148.3 500"/>
      <polygon class="cls-1" points="148.3 582.92 148.3 665.83 222.44 582.92 148.3 582.92"/>
      <polygon class="cls-1" points="222.44 500 222.44 582.92 296.59 500 222.44 500"/>
      <polygon class="cls-1" points="222.44 582.92 222.44 665.83 296.59 582.92 222.44 582.92"/>
      <polygon class="cls-1" points="297.9 248.75 297.9 331.67 372.05 248.75 297.9 248.75"/>
      <polygon class="cls-1" points="372.05 165.83 372.05 248.75 446.19 165.83 372.05 165.83"/>
      <polygon class="cls-1" points="372.05 248.75 372.05 331.67 446.19 248.75 372.05 248.75"/>
      <polygon class="cls-1" points="297.9 331.67 297.9 414.59 372.05 331.67 297.9 331.67"/>
      <polygon class="cls-1" points="297.9 414.59 297.9 497.51 372.05 414.59 297.9 414.59"/>
      <polygon class="cls-1" points="372.05 331.67 372.05 414.59 446.19 331.67 372.05 331.67"/>
      <polygon class="cls-1" points="372.05 414.59 372.05 497.51 446.19 414.59 372.05 414.59"/>
      <polygon class="cls-1" points="297.9 500 297.9 582.92 372.05 500 297.9 500"/>
      <polygon class="cls-1" points="297.9 582.92 297.9 665.83 372.05 582.92 297.9 582.92"/>
      <polygon class="cls-1" points="372.05 500 372.05 582.92 446.19 500 372.05 500"/>
      <polygon class="cls-1" points="372.05 582.92 372.05 665.83 446.19 582.92 372.05 582.92"/>
      <polygon class="cls-1" points="446.19 165.83 446.19 248.75 520.34 165.83 446.19 165.83"/>
      <polygon class="cls-1" points="446.19 248.75 446.19 331.67 520.34 248.75 446.19 248.75"/>
      <polygon class="cls-1" points="520.34 165.83 520.34 248.75 594.49 165.83 520.34 165.83"/>
      <polygon class="cls-1" points="446.19 82.92 446.19 165.83 520.34 82.92 446.19 82.92"/>
      <polygon class="cls-1" points="520.34 82.92 520.34 165.83 594.49 82.92 520.34 82.92"/>
      <polygon class="cls-1" points="520.34 0 520.34 82.92 594.49 0 520.34 0"/>
      <polygon class="cls-1" points="520.34 248.75 520.34 331.67 594.49 248.75 520.34 248.75"/>
      <polygon class="cls-1" points="446.19 331.67 446.19 414.59 520.34 331.67 446.19 331.67"/>
      <polygon class="cls-1" points="446.19 414.59 446.19 497.51 520.34 414.59 446.19 414.59"/>
      <polygon class="cls-1" points="520.34 331.67 520.34 414.59 594.49 331.67 520.34 331.67"/>
      <polygon class="cls-1" points="520.34 414.59 520.34 497.51 594.49 414.59 520.34 414.59"/>
      <polygon class="cls-1" points="446.19 500 446.19 582.92 520.34 500 446.19 500"/>
      <polygon class="cls-1" points="446.19 582.92 446.19 665.83 520.34 582.92 446.19 582.92"/>
      <polygon class="cls-1" points="520.34 500 520.34 582.92 594.49 500 520.34 500"/>
      <polygon class="cls-1" points="520.34 582.92 520.34 665.83 594.49 582.92 520.34 582.92"/>
    </g>
  </g>
</svg>