<?xml version="1.0" encoding="UTF-8"?>
<svg id="Layer_2" data-name="Layer 2" xmlns="http://www.w3.org/2000/svg" viewBox="0 0 90 80">
  <defs>
    <style>
      .cls-1 {
        fill: #1d2047;
      }

      .cls-2 {
        fill: #3d5ea8;
      }

      .cls-3 {
        fill: none;
      }
    </style>
  </defs>
  <g id="Layer_1-2" data-name="Layer 1">
    <g>
      <g>
        <path class="cls-2" d="M76.38,27.13h-37.83c-.42,0-.75.34-.75.75v6.79c0,.41.33.75.75.75h37.83c.41,0,.75-.34.75-.75v-6.79c0-.41-.34-.75-.75-.75ZM43.2,33.92h-3.9v-5.29h3.9v5.29ZM44.7,28.63h3.91v5.29h-3.91v-5.29ZM50.11,28.63h3.9v5.29h-3.9v-5.29ZM55.51,28.63h3.9v5.29h-3.9v-5.29ZM60.91,28.63h3.91v5.29h-3.91v-5.29ZM66.32,28.63h3.9v5.29h-3.9v-5.29ZM75.63,33.92h-3.91v-5.29h3.91v5.29Z"/>
        <path class="cls-2" d="M76.38,42.04h-37.83c-.42,0-.75.33-.75.75v6.78c0,.42.33.75.75.75h37.83c.41,0,.75-.33.75-.75v-6.78c0-.42-.34-.75-.75-.75ZM43.2,48.82h-3.9v-5.28h3.9v5.28ZM44.7,43.54h3.91v5.28h-3.91v-5.28ZM50.11,43.54h3.9v5.28h-3.9v-5.28ZM55.51,43.54h3.9v5.28h-3.9v-5.28ZM60.91,43.54h3.91v5.28h-3.91v-5.28ZM66.32,43.54h3.9v5.28h-3.9v-5.28ZM75.63,48.82h-3.91v-5.28h3.91v5.28Z"/>
        <path class="cls-2" d="M28.8,48.82h-15.42c-.41,0-.75.34-.75.75v7.21c0,.42.34.75.75.75h15.42c.41,0,.75-.33.75-.75v-7.21c0-.41-.34-.75-.75-.75ZM16.49,56.03h-2.36v-5.71h2.36v5.71ZM20.34,56.03h-2.35v-5.71h2.35v5.71ZM24.2,56.03h-2.36v-5.71h2.36v5.71ZM28.05,56.03h-2.35v-5.71h2.35v5.71Z"/>
        <path class="cls-2" d="M28.8,63.97h-15.42c-.41,0-.75.34-.75.75v7.22c0,.41.34.75.75.75h15.42c.41,0,.75-.34.75-.75v-7.22c0-.41-.34-.75-.75-.75ZM16.49,71.19h-2.36v-5.72h2.36v5.72ZM20.34,71.19h-2.35v-5.72h2.35v5.72ZM24.2,71.19h-2.36v-5.72h2.36v5.72ZM28.05,71.19h-2.35v-5.72h2.35v5.72Z"/>
        <path class="cls-2" d="M66.19,78.32v-19.98h1.47c.41,0,.75-.34.75-.75s-.34-.75-.75-.75h-20.32c-.42,0-.75.33-.75.75s.33.75.75.75h1.53v19.98H4.39v1.5h81.21v-1.5h-19.41ZM56.78,78.32h-6.41v-19.98h6.41v19.98ZM64.69,78.32h-6.41v-19.98h6.41v19.98Z"/>
      </g>
      <rect class="cls-3" x="39.3" y="13.73" width="3.9" height="5.28"/>
      <rect class="cls-3" x="71.72" y="13.73" width="3.91" height="5.28"/>
      <path class="cls-3" d="M44.7,13.73v5.28h3.91v-5.28h-3.91ZM50.11,13.73v5.28h3.9v-5.28h-3.9ZM55.51,13.73v5.28h3.9v-5.28h-3.9ZM60.91,13.73v5.28h3.91v-5.28h-3.91ZM66.32,13.73v5.28h3.9v-5.28h-3.9ZM66.32,13.73v5.28h3.9v-5.28h-3.9ZM60.91,13.73v5.28h3.91v-5.28h-3.91ZM55.51,13.73v5.28h3.9v-5.28h-3.9ZM50.11,13.73v5.28h3.9v-5.28h-3.9ZM44.7,13.73v5.28h3.91v-5.28h-3.91ZM5.19,38.45v2.9h27.19v-2.9H5.19ZM44.7,13.73v5.28h3.91v-5.28h-3.91ZM50.11,13.73v5.28h3.9v-5.28h-3.9ZM55.51,13.73v5.28h3.9v-5.28h-3.9ZM60.91,13.73v5.28h3.91v-5.28h-3.91ZM66.32,13.73v5.28h3.9v-5.28h-3.9ZM5.19,38.45v2.9h27.19v-2.9H5.19ZM66.32,13.73v5.28h3.9v-5.28h-3.9ZM60.91,13.73v5.28h3.91v-5.28h-3.91ZM55.51,13.73v5.28h3.9v-5.28h-3.9ZM50.11,13.73v5.28h3.9v-5.28h-3.9ZM44.7,13.73v5.28h3.91v-5.28h-3.91ZM5.19,38.45v2.9h27.19v-2.9H5.19ZM44.7,13.73v5.28h3.91v-5.28h-3.91ZM50.11,13.73v5.28h3.9v-5.28h-3.9ZM55.51,13.73v5.28h3.9v-5.28h-3.9ZM60.91,13.73v5.28h3.91v-5.28h-3.91ZM66.32,13.73v5.28h3.9v-5.28h-3.9ZM30.33,1.68v2.91h54.52V1.68H30.33ZM30.33,1.68v2.91h54.52V1.68H30.33ZM5.19,41.35h27.19v-2.9H5.19v2.9ZM66.32,13.73v5.28h3.9v-5.28h-3.9ZM60.91,19.01h3.91v-5.28h-3.91v5.28ZM55.51,19.01h3.9v-5.28h-3.9v5.28ZM50.11,19.01h3.9v-5.28h-3.9v5.28ZM44.7,19.01h3.91v-5.28h-3.91v5.28ZM0,0v80h90V0H0ZM77.13,19.76c0,.42-.34.75-.75.75h-37.83c-.42,0-.75-.33-.75-.75v-6.78c0-.42.33-.75.75-.75h37.83c.41,0,.75.33.75.75v6.78ZM86.35,5.34c0,.41-.34.75-.75.75h-2.92v72.23h-1.5V6.09h-47.3v72.23h-1.5v-35.46H9.13v35.46h-1.5v-35.47h-3.19c-.41,0-.75-.33-.75-.75v-4.4c0-.42.34-.75.75-.75h27.94V6.09h-2.8c-.41,0-.75-.34-.75-.75V.93c0-.41.34-.75.75-.75h56.02c.41,0,.75.34.75.75v4.41ZM30.33,4.59h54.52V1.68H30.33v2.91ZM66.32,19.01h3.9v-5.28h-3.9v5.28ZM60.91,19.01h3.91v-5.28h-3.91v5.28ZM55.51,19.01h3.9v-5.28h-3.9v5.28ZM50.11,19.01h3.9v-5.28h-3.9v5.28ZM44.7,19.01h3.91v-5.28h-3.91v5.28ZM5.19,41.35h27.19v-2.9H5.19v2.9ZM44.7,13.73v5.28h3.91v-5.28h-3.91ZM50.11,13.73v5.28h3.9v-5.28h-3.9ZM55.51,13.73v5.28h3.9v-5.28h-3.9ZM60.91,13.73v5.28h3.91v-5.28h-3.91ZM66.32,13.73v5.28h3.9v-5.28h-3.9ZM5.19,38.45v2.9h27.19v-2.9H5.19ZM66.32,13.73v5.28h3.9v-5.28h-3.9ZM60.91,13.73v5.28h3.91v-5.28h-3.91ZM55.51,13.73v5.28h3.9v-5.28h-3.9ZM50.11,13.73v5.28h3.9v-5.28h-3.9ZM44.7,13.73v5.28h3.91v-5.28h-3.91ZM5.19,38.45v2.9h27.19v-2.9H5.19ZM44.7,13.73v5.28h3.91v-5.28h-3.91ZM50.11,13.73v5.28h3.9v-5.28h-3.9ZM55.51,13.73v5.28h3.9v-5.28h-3.9ZM60.91,13.73v5.28h3.91v-5.28h-3.91ZM66.32,13.73v5.28h3.9v-5.28h-3.9ZM5.19,38.45v2.9h27.19v-2.9H5.19ZM66.32,13.73v5.28h3.9v-5.28h-3.9ZM60.91,13.73v5.28h3.91v-5.28h-3.91ZM55.51,13.73v5.28h3.9v-5.28h-3.9ZM50.11,13.73v5.28h3.9v-5.28h-3.9ZM44.7,13.73v5.28h3.91v-5.28h-3.91ZM5.19,38.45v2.9h27.19v-2.9H5.19Z"/>
      <path class="cls-1" d="M85.6.18H29.58c-.41,0-.75.34-.75.75v4.41c0,.41.34.75.75.75h2.8v30.86H4.44c-.41,0-.75.33-.75.75v4.4c0,.42.34.75.75.75h3.19v35.47h1.5v-35.46h23.25v35.46h1.5V6.09h47.3v72.23h1.5V6.09h2.92c.41,0,.75-.34.75-.75V.93c0-.41-.34-.75-.75-.75ZM32.38,41.35H5.19v-2.9h27.19v2.9ZM84.85,4.59H30.33V1.68h54.52v2.91Z"/>
      <path class="cls-2" d="M76.38,12.23h-37.83c-.42,0-.75.33-.75.75v6.78c0,.42.33.75.75.75h37.83c.41,0,.75-.33.75-.75v-6.78c0-.42-.34-.75-.75-.75ZM43.2,19.01h-3.9v-5.28h3.9v5.28ZM44.7,13.73h3.91v5.28h-3.91v-5.28ZM50.11,13.73h3.9v5.28h-3.9v-5.28ZM55.51,13.73h3.9v5.28h-3.9v-5.28ZM60.91,13.73h3.91v5.28h-3.91v-5.28ZM66.32,13.73h3.9v5.28h-3.9v-5.28ZM75.63,19.01h-3.91v-5.28h3.91v5.28Z"/>
    </g>
  </g>
</svg>