<?xml version="1.0" encoding="UTF-8"?>
<svg id="Layer_2" data-name="Layer 2" xmlns="http://www.w3.org/2000/svg" viewBox="0 0 90 80">
  <defs>
    <style>
      .cls-1 {
        fill: #1d2047;
      }

      .cls-2 {
        fill: #3d5ea8;
      }

      .cls-3 {
        fill: none;
      }
    </style>
  </defs>
  <g id="Layer_1-2" data-name="Layer 1">
    <g>
      <rect class="cls-3" width="90" height="80"/>
      <rect class="cls-1" x="4.03" y="25.71" width="72.26" height="1.5"/>
      <path class="cls-1" d="M22.96,22.1h-4.24c-2.23,0-4.04-1.81-4.04-4.04v-8.06c0-2.23,1.81-4.04,4.04-4.04h4.24c2.23,0,4.04,1.81,4.04,4.04v8.06c0,2.23-1.81,4.04-4.04,4.04ZM18.72,7.46c-1.4,0-2.54,1.14-2.54,2.54v8.06c0,1.4,1.14,2.54,2.54,2.54h4.24c1.4,0,2.54-1.14,2.54-2.54v-8.06c0-1.4-1.14-2.54-2.54-2.54h-4.24Z"/>
      <path class="cls-1" d="M61.16,22.1h-4.24c-2.23,0-4.04-1.81-4.04-4.04v-8.06c0-2.23,1.81-4.04,4.04-4.04h4.24c2.23,0,4.04,1.81,4.04,4.04v8.06c0,2.23-1.81,4.04-4.04,4.04ZM56.93,7.46c-1.4,0-2.54,1.14-2.54,2.54v8.06c0,1.4,1.14,2.54,2.54,2.54h4.24c1.4,0,2.54-1.14,2.54-2.54v-8.06c0-1.4-1.14-2.54-2.54-2.54h-4.24Z"/>
      <rect class="cls-1" x="26.25" y="12.24" width="27.38" height="1.5"/>
      <path class="cls-1" d="M18.9,39.72h-5.03c-1,0-1.81-.81-1.81-1.81v-5.03c0-1,.81-1.81,1.81-1.81h5.03c1,0,1.81.81,1.81,1.81v5.03c0,1-.81,1.81-1.81,1.81ZM13.87,32.57c-.17,0-.31.14-.31.31v5.03c0,.17.14.31.31.31h5.03c.17,0,.31-.14.31-.31v-5.03c0-.17-.14-.31-.31-.31h-5.03Z"/>
      <path class="cls-1" d="M34.6,39.72h-5.03c-1,0-1.81-.81-1.81-1.81v-5.03c0-1,.81-1.81,1.81-1.81h5.03c1,0,1.81.81,1.81,1.81v5.03c0,1-.81,1.81-1.81,1.81ZM29.57,32.57c-.17,0-.31.14-.31.31v5.03c0,.17.14.31.31.31h5.03c.17,0,.31-.14.31-.31v-5.03c0-.17-.14-.31-.31-.31h-5.03Z"/>
      <path class="cls-1" d="M50.31,39.72h-5.03c-1,0-1.81-.81-1.81-1.81v-5.03c0-1,.81-1.81,1.81-1.81h5.03c1,0,1.81.81,1.81,1.81v5.03c0,1-.81,1.81-1.81,1.81ZM45.28,32.57c-.17,0-.31.14-.31.31v5.03c0,.17.14.31.31.31h5.03c.17,0,.31-.14.31-.31v-5.03c0-.17-.14-.31-.31-.31h-5.03Z"/>
      <path class="cls-1" d="M18.9,53.47h-5.03c-1,0-1.81-.81-1.81-1.81v-5.03c0-1,.81-1.81,1.81-1.81h5.03c1,0,1.81.81,1.81,1.81v5.03c0,1-.81,1.81-1.81,1.81ZM13.87,46.32c-.17,0-.31.14-.31.31v5.03c0,.17.14.31.31.31h5.03c.17,0,.31-.14.31-.31v-5.03c0-.17-.14-.31-.31-.31h-5.03Z"/>
      <path class="cls-1" d="M34.6,53.47h-5.03c-1,0-1.81-.81-1.81-1.81v-5.03c0-1,.81-1.81,1.81-1.81h5.03c1,0,1.81.81,1.81,1.81v5.03c0,1-.81,1.81-1.81,1.81ZM29.57,46.32c-.17,0-.31.14-.31.31v5.03c0,.17.14.31.31.31h5.03c.17,0,.31-.14.31-.31v-5.03c0-.17-.14-.31-.31-.31h-5.03Z"/>
      <path class="cls-1" d="M50.31,53.47h-5.03c-1,0-1.81-.81-1.81-1.81v-5.03c0-1,.81-1.81,1.81-1.81h5.03c1,0,1.81.81,1.81,1.81v5.03c0,1-.81,1.81-1.81,1.81ZM45.28,46.32c-.17,0-.31.14-.31.31v5.03c0,.17.14.31.31.31h5.03c.17,0,.31-.14.31-.31v-5.03c0-.17-.14-.31-.31-.31h-5.03Z"/>
      <path class="cls-1" d="M18.9,67.22h-5.03c-1,0-1.81-.81-1.81-1.81v-5.03c0-1,.81-1.81,1.81-1.81h5.03c1,0,1.81.81,1.81,1.81v5.03c0,1-.81,1.81-1.81,1.81ZM13.87,60.07c-.17,0-.31.14-.31.31v5.03c0,.17.14.31.31.31h5.03c.17,0,.31-.14.31-.31v-5.03c0-.17-.14-.31-.31-.31h-5.03Z"/>
      <path class="cls-1" d="M34.6,67.22h-5.03c-1,0-1.81-.81-1.81-1.81v-5.03c0-1,.81-1.81,1.81-1.81h5.03c1,0,1.81.81,1.81,1.81v5.03c0,1-.81,1.81-1.81,1.81ZM29.57,60.07c-.17,0-.31.14-.31.31v5.03c0,.17.14.31.31.31h5.03c.17,0,.31-.14.31-.31v-5.03c0-.17-.14-.31-.31-.31h-5.03Z"/>
      <path class="cls-1" d="M50.31,67.22h-5.03c-1,0-1.81-.81-1.81-1.81v-5.03c0-1,.81-1.81,1.81-1.81h5.03c1,0,1.81.81,1.81,1.81v5.03c0,1-.81,1.81-1.81,1.81ZM45.28,60.07c-.17,0-.31.14-.31.31v5.03c0,.17.14.31.31.31h5.03c.17,0,.31-.14.31-.31v-5.03c0-.17-.14-.31-.31-.31h-5.03Z"/>
      <path class="cls-1" d="M66.01,39.72h-5.03c-1,0-1.81-.81-1.81-1.81v-5.03c0-1,.81-1.81,1.81-1.81h5.03c1,0,1.81.81,1.81,1.81v5.03c0,1-.81,1.81-1.81,1.81ZM60.99,32.57c-.17,0-.31.14-.31.31v5.03c0,.17.14.31.31.31h5.03c.17,0,.31-.14.31-.31v-5.03c0-.17-.14-.31-.31-.31h-5.03Z"/>
      <path class="cls-1" d="M64.7,72.24H10.81c-4.28,0-7.76-3.48-7.76-7.76V20c0-4.28,3.48-7.76,7.76-7.76h4.62v1.5h-4.62c-3.45,0-6.26,2.81-6.26,6.26v44.47c0,3.45,2.81,6.26,6.26,6.26h53.89v1.5Z"/>
      <path class="cls-1" d="M76.81,42.86h-1.5v-22.86c0-3.45-2.81-6.26-6.26-6.26h-4.59v-1.5h4.59c4.28,0,7.76,3.48,7.76,7.76v22.86Z"/>
      <path class="cls-2" d="M71.69,73.99c-8.96,0-16.25-7.29-16.25-16.25s7.29-16.25,16.25-16.25,16.25,7.29,16.25,16.25-7.29,16.25-16.25,16.25ZM71.69,42.99c-8.13,0-14.75,6.62-14.75,14.75s6.62,14.75,14.75,14.75,14.75-6.62,14.75-14.75-6.62-14.75-14.75-14.75Z"/>
      <path class="cls-2" d="M78.1,64.99c-.19,0-.39-.07-.53-.22l-6.63-6.72v-12.1c0-.41.34-.75.75-.75s.75.34.75.75v11.49l6.2,6.28c.29.29.29.77,0,1.06-.15.14-.34.22-.53.22Z"/>
    </g>
  </g>
</svg>