<?xml version="1.0" encoding="UTF-8"?>
<svg id="Layer_2" data-name="Layer 2" xmlns="http://www.w3.org/2000/svg" viewBox="0 0 90 80">
  <defs>
    <style>
      .cls-1 {
        fill: #3d5ea8;
      }

      .cls-1, .cls-2, .cls-3 {
        stroke-width: 0px;
      }

      .cls-2 {
        fill: none;
      }

      .cls-3 {
        fill: #1d2047;
      }
    </style>
  </defs>
  <g id="Layer_1-2" data-name="Layer 1">
    <g>
      <path class="cls-3" d="m56.87,42.72h-23.73c-.41,0-.74.33-.74.74v13.1c0,.41.33.73.74.74h23.73c.41,0,.74-.33.74-.74v-13.1c0-.41-.33-.73-.74-.74Zm-12.61,13.11h-10.36v-11.62h10.36v11.62Zm11.84,0h-10.36v-11.62h10.36v11.62Zm.77-32.19h-23.73c-.41,0-.74.33-.74.74v13.09c0,.41.33.74.74.74h23.73c.41,0,.74-.33.74-.74v-13.09c0-.41-.33-.73-.74-.74Zm-12.61,13.09h-10.36v-11.56h10.36v11.56Zm11.81,0h-10.33v-11.56h10.36l-.03,11.56Zm6.98-18.51L46.15,3.95l2.05-1.73c.15-.13.25-.31.27-.51.02-.19-.05-.39-.17-.54-.26-.28-.68-.32-.99-.09l-20.35,17.16c-.17.14-.27.36-.27.58v58.75h1.5V19.14l16.81-14.22,16.81,14.22v58.44h1.5V18.8c0-.22-.09-.44-.27-.58Zm-6.18,24.5h-23.73c-.41,0-.74.33-.74.74v13.1c0,.41.33.73.74.74h23.73c.41,0,.74-.33.74-.74v-13.1c0-.41-.33-.73-.74-.74Zm-12.61,13.11h-10.36v-11.62h10.36v11.62Zm11.84,0h-10.36v-11.62h10.36v11.62Zm.77-32.19h-23.73c-.41,0-.74.33-.74.74v13.09c0,.41.33.74.74.74h23.73c.41,0,.74-.33.74-.74v-13.09c0-.41-.33-.73-.74-.74Zm-12.61,13.09h-10.36v-11.56h10.36v11.56Zm11.81,0h-10.33v-11.56h10.36l-.03,11.56Zm.75,26.83h-23.69c-.41,0-.74.33-.74.74v13.28h1.51v-12.54h22.2v12.54h1.46v-13.28c0-.41-.33-.74-.74-.74Zm.05-20.84h-23.73c-.41,0-.74.33-.74.74v13.1c0,.41.33.73.74.74h23.73c.41,0,.74-.33.74-.74v-13.1c0-.41-.33-.73-.74-.74Zm-12.61,13.11h-10.36v-11.62h10.36v11.62Zm11.84,0h-10.36v-11.62h10.36v11.62Zm.77-32.19h-23.73c-.41,0-.74.33-.74.74v13.09c0,.41.33.74.74.74h23.73c.41,0,.74-.33.74-.74v-13.09c0-.41-.33-.73-.74-.74Zm-12.61,13.09h-10.36v-11.56h10.36v11.56Zm11.81,0h-10.33v-11.56h10.36l-.03,11.56Z"/>
      <path class="cls-1" d="m82.31,56.96h.06c.9-1.71.98-3.71.21-5.48-.78-1.76-2.32-3.06-4.19-3.52-1.86-.47-3.84-.07-5.35,1.11-1.52,1.19-2.4,3-2.41,4.92,0,1.03.25,2.05.74,2.97-2.8,2.23-3.95,5.95-2.91,9.38,1.03,3.43,4.05,5.89,7.62,6.2v5.04H13.93v-5.04c3.58-.29,6.61-2.74,7.66-6.18,1.04-3.43-.1-7.16-2.9-9.4.49-.91.75-1.94.74-2.97,0-1.92-.89-3.73-2.41-4.91-1.52-1.19-3.49-1.59-5.35-1.12-1.86.47-3.41,1.77-4.19,3.52-.77,1.77-.69,3.78.22,5.48-2.81,2.24-3.96,5.97-2.9,9.4,1.04,3.44,4.08,5.89,7.66,6.18v5.04h-2.22c-.41,0-.74.33-.74.74s.33.75.74.75h69.54c.41,0,.74-.33.74-.75s-.33-.74-.74-.74h-2.21v-5.04c3.58-.29,6.62-2.74,7.66-6.18,1.04-3.43-.1-7.16-2.9-9.4Zm-69.12,3.47c-.41,0-.74.33-.74.74v9.89c-1.86-.2-3.5-1.07-4.67-2.37-1.18-1.3-1.89-3.02-1.89-4.89.02-2.4,1.22-4.64,3.21-5.99.16-.1.28-.28.31-.47.04-.2,0-.4-.13-.56-1.01-1.45-1.13-3.35-.3-4.92.82-1.58,2.44-2.55,4.22-2.55s3.4.98,4.22,2.55c.82,1.57.7,3.47-.3,4.92-.11.16-.16.36-.12.56.04.2.16.37.33.47,2.51,1.74,3.66,4.85,2.91,7.79-.75,2.95-3.27,5.14-6.29,5.46v-9.89c0-.41-.33-.74-.74-.74Zm70.61,5.15c-.74,2.95-3.23,5.13-6.25,5.48v-9.89c0-.41-.33-.74-.74-.74s-.74.33-.74.74v9.89c-1.51-.16-2.9-.79-4-1.75-1.1-.95-1.92-2.23-2.3-3.71-.75-2.94.41-6.06,2.91-7.79.16-.1.28-.28.3-.47.04-.2,0-.4-.12-.56-1.01-1.46-1.13-3.35-.3-4.92.82-1.58,2.44-2.56,4.22-2.56s3.39.99,4.22,2.56c.82,1.57.7,3.46-.31,4.92-.11.16-.16.36-.12.56.04.2.15.37.31.47,2.5,1.73,3.66,4.83,2.92,7.77Z"/>
    </g>
    <rect class="cls-2" width="90" height="80"/>
  </g>
</svg>