<?xml version="1.0" encoding="UTF-8"?>
<svg id="Layer_2" data-name="Layer 2" xmlns="http://www.w3.org/2000/svg" viewBox="0 0 90 80">
  <defs>
    <style>
      .cls-1 {
        fill: #3d5ea8;
      }

      .cls-1, .cls-2, .cls-3 {
        stroke-width: 0px;
      }

      .cls-2 {
        fill: none;
      }

      .cls-3 {
        fill: #1d2047;
      }
    </style>
  </defs>
  <g id="Layer_1-2" data-name="Layer 1">
    <g>
      <path class="cls-3" d="m55.98,51.13c0-.43-.35-.78-.78-.78h-12.29c-.43,0-.78.35-.78.78v4.43c0,.43.35.78.78.78h12.29c.43,0,.78-.35.78-.78v-4.42Zm-1.56,3.64h-10.73s0-2.86,0-2.86h10.73v2.86Z"/>
      <path class="cls-3" d="m55.98,49.45v-4.43c0-.43-.35-.78-.78-.78h-12.29c-.43,0-.78.35-.78.78v4.43c0,.43.35.78.78.78h12.29c.43,0,.78-.35.78-.78Zm-1.56-.79h-10.73s0-2.86,0-2.86h10.73v2.86Z"/>
      <path class="cls-1" d="m39.33,56.36c-.43,0-.78.35-.78.78v4.43c0,.43.35.78.78.78h.51v10.73h-.51c-.43,0-.78.35-.78.78v4.42c0,.43.35.78.78.78h42.83c.43,0,.78-.35.78-.78v-4.42c0-.43-.35-.78-.78-.78h-.51v-10.73h.51c.43,0,.78-.35.78-.78v-4.43c0-.43-.35-.78-.78-.78h-.51s0-10.72,0-10.72h.51c.43,0,.78-.35.78-.78v-4.43c0-.43-.35-.78-.78-.78h-.51v-10.73h.51c.43,0,.78-.35.78-.78v-4.43c0-.43-.35-.78-.78-.78h-22.07c-.43,0-.78.35-.78.78v4.43c0,.43.35.78.78.78h.51v10.72h-.51c-.43,0-.78.35-.78.78v4.43c0,.43.35.78.78.78h.51v10.73h-21.27s0,0,0,0Zm.78,1.56h41.27v2.86h-41.27v-2.86Zm5.72,15.15v-10.73h14.77v10.73h-14.77Zm20.76,0v-10.73h9.08v10.73h-9.08Zm-1.56,0h-2.86v-10.73h2.86v10.73Zm-4.16-29v-2.86h20.51v2.86h-20.51Zm14.8-15.15v10.73h-9.08v-10.73h9.08Zm0,16.71v10.73h-9.08v-10.73h9.08Zm-13.5,0h2.86v10.73h-2.86v-10.73Zm0-16.71h2.86v10.73h-2.86v-10.73Zm19.22-1.56h-20.51v-2.86h20.51v2.86Zm-1.29,12.29h-2.86v-10.73h2.86v10.73Zm0,16.71h-2.86v-10.73h2.86v10.73Zm0,16.71h-2.86v-10.73h2.86v10.73Zm-39.98,1.56h41.27v2.86h-41.27s0-2.86,0-2.86Zm1.29-12.29h2.86v10.73s-2.86,0-2.86,0v-10.73Z"/>
      <path class="cls-3" d="m7.85,12.02c-.43,0-.78.35-.78.78v12.14c0,.43.35.78.78.78h8.38c.43,0,.78-.35.78-.78v-4h4.89v.12s0,0,0,0v38.73s0,0,0,0v5.67h-1.71c-.43,0-.78.35-.78.78v7.2h-1.55c-.43,0-.78.35-.78.78v4.07c0,.43.35.78.78.78h17c.43,0,.78-.35.78-.78v-4.07c0-.43-.35-.78-.78-.78h-1.55v-7.2c0-.43-.35-.78-.78-.78h-1.71V25.72h5.68c.33,0,.62-.21.73-.52l1.55-4.27h8.05v2.77c0,.43.35.78.78.78h2.71v7.93c-1.18.34-2.05,1.42-2.05,2.71v1.34h-3.31c-.43,0-.78.35-.78.78v4.43c0,.43.35.78.78.78h12.29c.43,0,.78-.35.78-.78v-4.43c0-.43-.35-.78-.78-.78h-3.31v-1.34c0-1.29-.87-2.37-2.05-2.71v-7.93h2.72c.43,0,.78-.35.78-.78v-2.77h6.93c.3,0,.59-.18.71-.46.13-.28.08-.61-.12-.84l-6.46-7.36s-.02,0-.02-.02c-.06-.06-.13-.11-.21-.15-.03-.02-.05-.03-.08-.04-.07-.03-.16-.05-.24-.05-.01,0-.02,0-.04,0h-6.33s-21.79-7.19-21.79-7.19l-.61-3.28c-.07-.37-.39-.67-.77-.64-.38,0-.7.27-.77.64l-.63,3.5-6.71,6.96H7.85Zm37.89,26.02h10.73v2.86h-10.72v-2.86Zm4.09-2.91c0-.7.57-1.27,1.27-1.27s1.27.57,1.27,1.27v1.34h-2.54v-1.34h0Zm-11.62-15.75l4.73-5.39,4.73,5.39h-9.46Zm-11-8.87h-1.64s.8-4.48.8-4.48l.84,4.48Zm2.04,1.56v8.21h-5.79v-.11s0,0,0,0v-7.36h0v-.73h5.79Zm-5.79,53.4v-3.95s4.5,3.95,4.5,3.95h-4.5Zm0-42.69l5.39,4.73-5.39,4.73v-9.46Zm0,12.91l5.39,4.73-5.39,4.73v-9.46Zm0,12.91l5.39,4.73-5.39,4.73v-9.46ZM41.22,13.59l-4.73,5.39-4.73-5.39h9.46Zm12.91,0l-4.73,5.39-4.73-5.39h9.46Zm-19.37,5.79h-3.95v-4.5s3.95,4.5,3.95,4.5Zm-5.51,6.41l-4.5-3.95h4.5v3.95Zm0,3.45v9.46s-5.39-4.73-5.39-4.73l5.39-4.73Zm0,12.91v9.46s-5.39-4.73-5.39-4.73l5.39-4.73Zm0,12.91v9.46s-5.39-4.73-5.39-4.73l5.39-4.73Zm-7.36-36.98l-3.95-4.5h3.95v4.5Zm2.57-10.26l-.48,2.68h-1.3c-.43,0-.78.35-.78.78v.73h-1.48s4.04-4.2,4.04-4.2Zm20.07,4.2h-13.73s0-.73,0-.73c0-.43-.35-.78-.78-.78h-1.23s-.73-3.92-.73-3.92l16.47,5.43Zm16.05,7.36h-9.46s4.73-5.39,4.73-5.39l4.73,5.39Zm-12.2,1.56h5.43v1.99h-5.43v-1.99Zm-12.44,3.22h-2.64v-.83h2.94s-.3.83-.3.83Zm-5.13,0v-3.1s0,0,0,0v-.11h5.66s0,0,.01,0,0,0,.01,0h.61l-.3.83h-4.29c-.43,0-.78.35-.78.78v1.61h-.93Zm-12.18,50.85h15.44v2.51h-15.43v-2.51Zm2.33-1.56v-6.42h1.71s0,0,0,0h7.36s0,0,0,0h1.71v6.42h-10.78s0,0,0,0Zm-3.96-54.07v-4.5s3.95,4.5,3.95,4.5h-3.95Zm-8.38-5.79h6.82v10.57h-6.82v-10.57Z"/>
    </g>
    <rect class="cls-2" width="90" height="80"/>
  </g>
</svg>